<svg xmlns="http://www.w3.org/2000/svg" width="1600" height="900" viewBox="0 0 1600 900">
  <rect width="1600" height="900" fill="#FAFAF9"/>
  <text x="80" y="124" font-family="Inter, Noto Sans SC, sans-serif" font-size="64" font-weight="900" fill="#1A1A1A">Prepare Livestream Event</text>
  <text x="84" y="178" font-family="Noto Sans SC, sans-serif" font-size="34" font-weight="700" fill="#52525B">线上直播活动页 + 海报 + 图文草稿 + 预约链接 + 群预告</text>
  <text x="86" y="224" font-family="Inter, Noto Sans SC, sans-serif" font-size="25" fill="#52525B">A bilingual, GitHub-ready Codex Skill for reusable livestream event launches.</text>
  <rect x="1160" y="70" width="330" height="62" rx="31" fill="#fff" stroke="#E85D3A" stroke-width="2"/>
  <text x="1200" y="109" font-family="Inter, sans-serif" font-size="19" font-weight="700" fill="#E85D3A">Image-ready prompts</text>
  <rect x="1160" y="148" width="330" height="62" rx="31" fill="#fff" stroke="#14B8A6" stroke-width="2"/>
  <text x="1200" y="187" font-family="Inter, sans-serif" font-size="19" font-weight="700" fill="#14B8A6">Figma editable SVG</text>

  <circle cx="117" cy="296" r="21" fill="#E85D3A"/>
  <text x="105" y="303" font-family="Inter, sans-serif" font-size="15" font-weight="800" fill="#fff">01</text>
  <rect x="80" y="330" width="220" height="210" rx="22" fill="#fff" stroke="#D4D4D8"/>
  <text x="104" y="381" font-family="Inter, sans-serif" font-size="20" font-weight="800" fill="#1A1A1A">Event Page</text>
  <text x="104" y="429" font-family="Noto Sans SC, sans-serif" font-size="25" font-weight="700" fill="#52525B">活动内容页</text>
  <rect x="104" y="454" width="172" height="46" rx="12" fill="#F5F3EF"/>
  <line x1="304" y1="428" x2="324" y2="428" stroke="#E85D3A" stroke-width="4"/>

  <circle cx="365" cy="296" r="21" fill="#3B82F6"/>
  <text x="353" y="303" font-family="Inter, sans-serif" font-size="15" font-weight="800" fill="#fff">02</text>
  <rect x="328" y="330" width="220" height="210" rx="22" fill="#fff" stroke="#D4D4D8"/>
  <text x="352" y="381" font-family="Inter, sans-serif" font-size="20" font-weight="800" fill="#1A1A1A">Poster Prompts</text>
  <text x="352" y="429" font-family="Noto Sans SC, sans-serif" font-size="25" font-weight="700" fill="#52525B">五版海报</text>
  <rect x="352" y="454" width="172" height="46" rx="12" fill="#F5F3EF"/>
  <line x1="552" y1="428" x2="572" y2="428" stroke="#E85D3A" stroke-width="4"/>

  <circle cx="613" cy="296" r="21" fill="#14B8A6"/>
  <text x="601" y="303" font-family="Inter, sans-serif" font-size="15" font-weight="800" fill="#fff">03</text>
  <rect x="576" y="330" width="220" height="210" rx="22" fill="#fff" stroke="#D4D4D8"/>
  <text x="600" y="381" font-family="Inter, sans-serif" font-size="20" font-weight="800" fill="#1A1A1A">Figma Polish</text>
  <text x="600" y="429" font-family="Noto Sans SC, sans-serif" font-size="25" font-weight="700" fill="#52525B">可编辑修图</text>
  <rect x="600" y="454" width="172" height="46" rx="12" fill="#F5F3EF"/>
  <line x1="800" y1="428" x2="820" y2="428" stroke="#E85D3A" stroke-width="4"/>

  <circle cx="861" cy="296" r="21" fill="#EC4899"/>
  <text x="849" y="303" font-family="Inter, sans-serif" font-size="15" font-weight="800" fill="#fff">04</text>
  <rect x="824" y="330" width="220" height="210" rx="22" fill="#fff" stroke="#D4D4D8"/>
  <text x="848" y="381" font-family="Inter, sans-serif" font-size="20" font-weight="800" fill="#1A1A1A">WeChat/XHS Drafts</text>
  <text x="848" y="429" font-family="Noto Sans SC, sans-serif" font-size="25" font-weight="700" fill="#52525B">图文草稿</text>
  <rect x="848" y="454" width="172" height="46" rx="12" fill="#F5F3EF"/>
  <line x1="1048" y1="428" x2="1068" y2="428" stroke="#E85D3A" stroke-width="4"/>

  <circle cx="1109" cy="296" r="21" fill="#22C55E"/>
  <text x="1097" y="303" font-family="Inter, sans-serif" font-size="15" font-weight="800" fill="#fff">05</text>
  <rect x="1072" y="330" width="220" height="210" rx="22" fill="#fff" stroke="#D4D4D8"/>
  <text x="1096" y="381" font-family="Inter, sans-serif" font-size="20" font-weight="800" fill="#1A1A1A">Live Links</text>
  <text x="1096" y="429" font-family="Noto Sans SC, sans-serif" font-size="25" font-weight="700" fill="#52525B">直播预约</text>
  <rect x="1096" y="454" width="172" height="46" rx="12" fill="#F5F3EF"/>
  <line x1="1296" y1="428" x2="1316" y2="428" stroke="#E85D3A" stroke-width="4"/>

  <circle cx="1357" cy="296" r="21" fill="#E85D3A"/>
  <text x="1345" y="303" font-family="Inter, sans-serif" font-size="15" font-weight="800" fill="#fff">06</text>
  <rect x="1320" y="330" width="220" height="210" rx="22" fill="#fff" stroke="#D4D4D8"/>
  <text x="1344" y="381" font-family="Inter, sans-serif" font-size="20" font-weight="800" fill="#1A1A1A">Group Launch</text>
  <text x="1344" y="429" font-family="Noto Sans SC, sans-serif" font-size="25" font-weight="700" fill="#52525B">群预告</text>
  <rect x="1344" y="454" width="172" height="46" rx="12" fill="#F5F3EF"/>

  <rect x="80" y="640" width="1440" height="155" rx="24" fill="#fff" stroke="#D4D4D8"/>
  <text x="120" y="701" font-family="Inter, sans-serif" font-size="20" font-weight="800" fill="#E85D3A">Core rule / 核心规则</text>
  <text x="120" y="742" font-family="Inter, Noto Sans SC, sans-serif" font-size="25" fill="#1A1A1A">Create the event page first. Draft before publishing. Require human confirmation before public posts or group sends.</text>
  <text x="120" y="779" font-family="Noto Sans SC, sans-serif" font-size="25" fill="#52525B">先生成活动页；先创建草稿；公众号、小红书、直播预约和微信群发送都需要人工确认。</text>
</svg>
